%TF.GenerationSoftware,Altium Limited,Altium Designer,26.9.1 (10)*%
G04 Layer_Color=0*
G04 Board_Origin=0|0*
%FSLAX45Y45*%
%MOMM*%
%TF.SameCoordinates,E5041555-3ECF-4B0D-B9F0-F997BBE7F2A8*%
%TF.FilePolarity,Positive*%
%TF.FileFunction,Plated,1,4,PTH,Drill*%
%TF.Part,Single*%
G01*
G75*
%TA.AperFunction,OtherDrill,Pad Free-1 (85mm,61mm)*%
%ADD61C,2.20000*%
%TA.AperFunction,OtherDrill,Pad Free-1 (116mm,61mm)*%
%ADD62C,2.20000*%
%TA.AperFunction,OtherDrill,Pad Free-1 (116mm,91mm)*%
%ADD63C,2.20000*%
%TA.AperFunction,OtherDrill,Pad Free-1 (85mm,91mm)*%
%ADD64C,2.20000*%
%TA.AperFunction,ViaDrill,NotFilled*%
%ADD65C,0.40000*%
%ADD66C,0.25000*%
%ADD67C,0.20000*%
%ADD68C,0.30000*%
D61*
X8500000Y6100000D02*
D03*
D62*
X11600000D02*
D03*
D63*
Y9100000D02*
D03*
D64*
X8500000D02*
D03*
D65*
X11600002Y8800001D02*
D03*
Y8400001D02*
D03*
Y7200000D02*
D03*
Y6800000D02*
D03*
Y6400000D02*
D03*
X11400002Y8800001D02*
D03*
X11500002Y7400000D02*
D03*
X11400002Y7200000D02*
D03*
X11500002Y7000000D02*
D03*
X11400002Y6800000D02*
D03*
X11500002Y6600000D02*
D03*
X11400002Y6400000D02*
D03*
X11300002Y9000001D02*
D03*
X11200001Y8800001D02*
D03*
X11300002Y8600001D02*
D03*
Y7400000D02*
D03*
Y7000000D02*
D03*
X11200001Y6800000D02*
D03*
Y6400000D02*
D03*
X11300002Y6200000D02*
D03*
X11000001Y8000001D02*
D03*
Y6800000D02*
D03*
X11100001Y6600000D02*
D03*
X10800001Y8400001D02*
D03*
Y6800000D02*
D03*
X10900001Y6600000D02*
D03*
X10800001Y6400000D02*
D03*
X10600001Y8000001D02*
D03*
Y7600000D02*
D03*
X10700001Y7400000D02*
D03*
Y7000000D02*
D03*
X10400001Y8800001D02*
D03*
X10300001Y9000001D02*
D03*
X10200001Y6400000D02*
D03*
X10100001Y7000000D02*
D03*
X9800001Y6400000D02*
D03*
X9700001Y8600001D02*
D03*
Y6200000D02*
D03*
X9500001Y8600001D02*
D03*
X9400001Y7200000D02*
D03*
X9500001Y6200000D02*
D03*
X9300000Y6600000D02*
D03*
X9200000Y6400000D02*
D03*
X9000000Y6800000D02*
D03*
Y6400000D02*
D03*
X8900000Y7800000D02*
D03*
X8800000Y7600000D02*
D03*
Y6800000D02*
D03*
Y6400000D02*
D03*
X8900000Y6200000D02*
D03*
X8700000Y7800000D02*
D03*
Y7000000D02*
D03*
Y6600000D02*
D03*
X8600000Y6400000D02*
D03*
X8700000Y6200000D02*
D03*
X8500000Y6600000D02*
D03*
D66*
X10775849Y8800000D02*
D03*
X11225000Y7975000D02*
D03*
X10650000Y8925000D02*
D03*
X9825000Y8475000D02*
D03*
X11075000Y7000000D02*
D03*
X10850000D02*
D03*
X10650000Y6875000D02*
D03*
X10700000Y6750000D02*
D03*
X11200000Y6650000D02*
D03*
X10950000Y6500000D02*
D03*
X10225000Y7100000D02*
D03*
X9950000Y6850000D02*
D03*
X9925000Y7075000D02*
D03*
X9500000Y8475000D02*
D03*
X9675000Y8325000D02*
D03*
X9100000D02*
D03*
X8575000Y8725000D02*
D03*
X8600000Y8475000D02*
D03*
X9325000Y7450000D02*
D03*
X9075000Y7875000D02*
D03*
X8800000Y7375000D02*
D03*
X9250000Y7025000D02*
D03*
X8800000Y7175000D02*
D03*
X9000000Y6125000D02*
D03*
X10050000Y6025000D02*
D03*
X9700000D02*
D03*
X8851913Y8073087D02*
D03*
X8825000Y8225000D02*
D03*
X10350000Y9125000D02*
D03*
X10762500Y8187500D02*
D03*
X9325000Y7650000D02*
D03*
D67*
X10176800Y7928900D02*
D03*
X9956800D02*
D03*
X10066800D02*
D03*
Y7818900D02*
D03*
X10176800D02*
D03*
X9956800D02*
D03*
X9846800Y7928900D02*
D03*
Y7708900D02*
D03*
Y7818900D02*
D03*
X10176800Y7708900D02*
D03*
X10066800Y7598900D02*
D03*
Y7708900D02*
D03*
X10176800Y7598900D02*
D03*
X10066800Y7488900D02*
D03*
X9956800Y7708900D02*
D03*
Y7598900D02*
D03*
X9846800D02*
D03*
X9956800Y7488900D02*
D03*
X9846800D02*
D03*
X10176800D02*
D03*
X9105000Y8595000D02*
D03*
Y8705000D02*
D03*
X8995000Y8595000D02*
D03*
Y8705000D02*
D03*
X9736800Y7928900D02*
D03*
Y7818900D02*
D03*
Y7708900D02*
D03*
Y7488900D02*
D03*
Y7598900D02*
D03*
D68*
X10690000Y9140000D02*
D03*
X10150000Y8800000D02*
D03*
X9800000Y8675000D02*
D03*
%TF.MD5,93791260e331b93b54673b844716eb6a*%
M02*
