M48
;Layer_Color=9474304
;FILE_FORMAT=4:4
METRIC,LZ
;TYPE=PLATED
T01F00S00C0.2000
T02F00S00C0.2500
T03F00S00C0.3000
T04F00S00C0.4000
T05F00S00C2.2000
;TYPE=NON_PLATED
T06F00S00C0.9950
%
T01
X0097368Y0074889
Y0075989
Y0077089
Y0078189
Y0079289
X0098468
Y0078189
Y0077089
Y0075989
Y0074889
X0099568
Y0075989
Y0077089
X0100668
X0101768
Y0075989
Y0074889
X0100668
Y0075989
Y0078189
X0101768
Y0079289
X0100668
X0099568
Y0078189
X009105Y008595
X008995
Y008705
X009105
T02
X009Y006125
X0097Y006025
X01005
X00995Y00685
X009925Y007075
X010225Y0071
X01065Y006875
X0107Y00675
X01085Y007
X011075
X0112Y00665
X01095Y0065
X00925Y007025
X009325Y00745
Y00765
X009075Y007875
X0088Y007375
Y007175
X00885191Y00807309
X008825Y008225
X0091Y008325
X0095Y008475
X009675Y008325
X009825Y008475
X01035Y009125
X01065Y008925
X01077585Y0088
X0107625Y0081875
X011225Y007975
X0086Y008475
X008575Y008725
T03
X0098Y008675
X01015Y0088
X01069Y00914
T04
X0087Y0062
X0089
X0088Y0064
X0086
X0085Y0066
X0087
X0088Y0068
X009
Y0064
X0092
X0093Y0066
X0095Y0062
X0097
X0098Y0064
X0102
X0108
X0109Y0066
X0111
X011Y0068
X0108
X0107Y007
Y0074
X0106Y0076
X0113Y0074
X0115
X0114Y0072
X0116
X0115Y007
X0113
X0112Y0068
X0114
X0116
X0115Y0066
X0114Y0064
X0112
X0113Y0062
X0116Y0064
X0101Y007
X0094Y0072
X0087Y007
X0088Y0076
X0087Y0078
X0089
X0095Y0086
X0097
X0104Y0088
X0103Y009
X0113
X0112Y0088
X0114
X0116
Y0084
X0113Y0086
X0108Y0084
X0106Y008
X011
T05
X0085Y0061
X0116
Y0091
X0085
T06
X010669Y0085599
Y0087631
X011177Y0086615
M30
