%TF.GenerationSoftware,Altium Limited,Altium Designer,26.9.1 (10)*%
G04 Layer_Physical_Order=1*
G04 Layer_Color=255*
G04 Board_Origin=0|0*
%FSLAX45Y45*%
%MOMM*%
%TF.SameCoordinates,E5041555-3ECF-4B0D-B9F0-F997BBE7F2A8*%
%TF.FilePolarity,Positive*%
%TF.FileFunction,Copper,L1,Top,Signal*%
%TF.Part,Single*%
G01*
G75*
%TA.AperFunction,NonConductor*%
%ADD10C,0.25400*%
%TA.AperFunction,BGAPad,CuDef*%
%ADD11C,0.79000*%
%TA.AperFunction,SMDPad,CuDef*%
%ADD12R,0.50000X0.60000*%
%ADD13R,0.60000X0.50000*%
%ADD14R,1.38000X0.45000*%
%ADD15O,0.80000X0.25000*%
%ADD16R,0.47247X0.55964*%
%ADD17R,0.90000X0.80000*%
%ADD18R,0.87213X1.00429*%
%ADD19R,1.30000X0.70000*%
%ADD20R,0.55964X0.47247*%
%ADD21O,0.25000X0.80000*%
%ADD22R,0.70000X1.30000*%
%ADD23R,0.80000X0.90000*%
%ADD24R,0.35000X0.80000*%
%ADD25R,2.60000X2.70000*%
%ADD26R,0.85000X0.35000*%
%ADD27R,5.60000X5.60000*%
%ADD28R,0.50000X0.50000*%
%ADD29R,1.40000X1.15000*%
%ADD30R,1.00000X2.80000*%
G04:AMPARAMS|DCode=31|XSize=1.00429mm|YSize=3.18213mm|CornerRadius=0.43687mm|HoleSize=0mm|Usage=FLASHONLY|Rotation=270.000|XOffset=0mm|YOffset=0mm|HoleType=Round|Shape=RoundedRectangle|*
%AMROUNDEDRECTD31*
21,1,1.00429,2.30840,0,0,270.0*
21,1,0.13056,3.18213,0,0,270.0*
1,1,0.87373,-1.15420,-0.06528*
1,1,0.87373,-1.15420,0.06528*
1,1,0.87373,1.15420,0.06528*
1,1,0.87373,1.15420,-0.06528*
%
%ADD31ROUNDEDRECTD31*%
G04:AMPARAMS|DCode=32|XSize=1.00429mm|YSize=0.87213mm|CornerRadius=0.43606mm|HoleSize=0mm|Usage=FLASHONLY|Rotation=270.000|XOffset=0mm|YOffset=0mm|HoleType=Round|Shape=RoundedRectangle|*
%AMROUNDEDRECTD32*
21,1,1.00429,0.00000,0,0,270.0*
21,1,0.13216,0.87213,0,0,270.0*
1,1,0.87213,0.00000,-0.06608*
1,1,0.87213,0.00000,0.06608*
1,1,0.87213,0.00000,0.06608*
1,1,0.87213,0.00000,-0.06608*
%
%ADD32ROUNDEDRECTD32*%
%ADD33R,0.60000X1.70000*%
%ADD34R,1.55000X1.42500*%
%ADD35R,1.90000X1.00000*%
%ADD36R,1.90000X1.80000*%
%ADD37R,1.30000X1.65000*%
%ADD38R,1.20606X1.05822*%
%TA.AperFunction,Conductor*%
%ADD39C,0.50000*%
%ADD40C,0.45000*%
%ADD41C,0.30000*%
%ADD42C,0.25000*%
%ADD43C,0.40000*%
%ADD44C,0.26017*%
%TA.AperFunction,ComponentPad*%
%ADD45C,0.90000*%
%TA.AperFunction,ViaPad*%
%ADD46C,1.52400*%
%ADD47C,0.80000*%
%ADD48C,0.60000*%
%ADD49C,0.50000*%
%ADD50C,0.70000*%
G36*
X11316000Y7737500D02*
X11480000D01*
Y7680000D01*
X11320000D01*
X11317500Y7677500D01*
X11316000D01*
Y7676000D01*
X11170000Y7530000D01*
Y7170000D01*
X10970000D01*
Y7560000D01*
X11150000Y7740000D01*
X11316000D01*
Y7737500D01*
D02*
G37*
G36*
X10950000Y7170000D02*
X10670000D01*
X10440000Y6940000D01*
Y6770000D01*
X10410000D01*
X10320000Y6680000D01*
Y6600000D01*
X10300000Y6580000D01*
X10180000D01*
Y6720000D01*
X10260000Y6800000D01*
X10290000D01*
Y6980000D01*
X10320000Y7010000D01*
X10400000D01*
X10760000Y7370000D01*
Y7570000D01*
X10770000Y7580000D01*
X10950000D01*
Y7170000D01*
D02*
G37*
G36*
X10540000Y6480000D02*
X10710000Y6310000D01*
X11060000D01*
Y6170000D01*
X10860000D01*
X10670000Y6160000D01*
Y6060000D01*
Y5930000D01*
X10290000D01*
Y6140000D01*
X10390000Y6240000D01*
Y6710000D01*
X10540000D01*
Y6480000D01*
D02*
G37*
D10*
X11800000Y9173000D02*
G03*
X11673000Y9300000I-127000J0D01*
G01*
X11729289Y5929289D02*
G03*
X11800000Y6100000I-170711J170711D01*
G01*
X11658579Y5900000D02*
G03*
X11729289Y5929289I0J99999D01*
G01*
X8427000Y9300000D02*
G03*
X8300000Y9173000I0J-127000D01*
G01*
Y6027000D02*
G03*
X8427000Y5900000I127000J0D01*
G01*
X11800000Y6100000D02*
Y9173000D01*
X11600000Y9300000D02*
X11673000D01*
X8427000D02*
X8500000D01*
X8300000Y6027000D02*
Y9173000D01*
X8427000Y5900000D02*
X11658579Y5900000D01*
X8463500Y9300000D02*
X11600000Y9300000D01*
D11*
X10788000Y8725000D02*
D03*
X11050000D02*
D03*
X10923000D02*
D03*
X10796000Y8598000D02*
D03*
X10923000D02*
D03*
X11050000D02*
D03*
D12*
X10750000Y8925000D02*
D03*
X10225000Y7175000D02*
D03*
X9750000Y8225000D02*
D03*
X9025000Y8325000D02*
D03*
X9650000Y8225000D02*
D03*
X10325000Y7175000D02*
D03*
X8925000Y8325000D02*
D03*
X10850000Y8925000D02*
D03*
X10430000Y7550000D02*
D03*
X10520000D02*
D03*
D13*
X10475000Y7975000D02*
D03*
X9400000Y8475000D02*
D03*
X8675000Y8750000D02*
D03*
Y8525000D02*
D03*
X9450000Y7875000D02*
D03*
X9475000Y7600000D02*
D03*
X9450000Y7975000D02*
D03*
X8675000Y8850000D02*
D03*
X11210000Y6230000D02*
D03*
X10475000Y8075000D02*
D03*
X9475000Y7500000D02*
D03*
X9400000Y8575000D02*
D03*
X8675000Y8625000D02*
D03*
X11210000Y6320000D02*
D03*
D14*
X11400000Y7970000D02*
D03*
Y7905000D02*
D03*
Y7840000D02*
D03*
Y7775000D02*
D03*
Y7710000D02*
D03*
D15*
X10296800Y7933900D02*
D03*
X9616800Y7633900D02*
D03*
Y7583900D02*
D03*
Y7983900D02*
D03*
X10296800D02*
D03*
X9616800Y7683900D02*
D03*
Y7733900D02*
D03*
X10296800Y7883900D02*
D03*
Y7783900D02*
D03*
Y7833900D02*
D03*
X9616800Y7783900D02*
D03*
X10296800Y7483900D02*
D03*
Y7733900D02*
D03*
Y7683900D02*
D03*
Y7633900D02*
D03*
Y7583900D02*
D03*
Y7533900D02*
D03*
Y7433900D02*
D03*
X9616800D02*
D03*
Y7483900D02*
D03*
Y7533900D02*
D03*
Y7833900D02*
D03*
Y7883900D02*
D03*
Y7933900D02*
D03*
D16*
X9900000Y8475249D02*
D03*
X11210000Y6573632D02*
D03*
Y6498382D02*
D03*
X9900000Y8400000D02*
D03*
D17*
X11069600Y7095945D02*
D03*
X10847686D02*
D03*
X9175000Y7875000D02*
D03*
Y8025000D02*
D03*
X11069600Y7245946D02*
D03*
X10847686D02*
D03*
D18*
X10704000Y6654500D02*
D03*
D19*
X10950000Y6420000D02*
D03*
Y6230000D02*
D03*
D20*
X10437375Y7375000D02*
D03*
X10225000Y8625000D02*
D03*
X9949750D02*
D03*
X11062625Y8925000D02*
D03*
X10987375D02*
D03*
X9200000Y7575000D02*
D03*
X9124751D02*
D03*
X10025000Y8625000D02*
D03*
X10149751D02*
D03*
X10512625Y7375000D02*
D03*
D21*
X10181800Y7368900D02*
D03*
X9731800Y8048900D02*
D03*
X10231800Y7368900D02*
D03*
X9681800Y8048900D02*
D03*
X9731800Y7368900D02*
D03*
X9881800D02*
D03*
X9831800D02*
D03*
X9781800D02*
D03*
X10231800Y8048900D02*
D03*
X10131800D02*
D03*
X9931800D02*
D03*
X9881800D02*
D03*
X9831800D02*
D03*
X10131800Y7368900D02*
D03*
X9981800Y8048900D02*
D03*
X9781800D02*
D03*
X10031800D02*
D03*
X10081800D02*
D03*
X10181800D02*
D03*
X10081800Y7368900D02*
D03*
X10031800D02*
D03*
X9981800D02*
D03*
X9931800D02*
D03*
X9681800D02*
D03*
D22*
X10570000Y6875000D02*
D03*
X10380000D02*
D03*
D23*
X9925000Y7175000D02*
D03*
X10075000D02*
D03*
D24*
X9175000Y8850000D02*
D03*
Y8450000D02*
D03*
X8925000D02*
D03*
X8975000D02*
D03*
X9025000D02*
D03*
X9075000D02*
D03*
X9125000D02*
D03*
X8925000Y8850000D02*
D03*
X8975000D02*
D03*
X9025000D02*
D03*
X9075000D02*
D03*
X9125000D02*
D03*
D25*
X9050000Y8650000D02*
D03*
D26*
X8852500Y8575000D02*
D03*
Y8675000D02*
D03*
Y8725000D02*
D03*
X9247500Y8575000D02*
D03*
Y8775000D02*
D03*
X8852500Y8525000D02*
D03*
X9247500Y8725000D02*
D03*
Y8525000D02*
D03*
Y8625000D02*
D03*
Y8675000D02*
D03*
X8852500Y8625000D02*
D03*
Y8775000D02*
D03*
D27*
X9956800Y7708900D02*
D03*
D28*
X9200000Y7375000D02*
D03*
X8875000D02*
D03*
X8975000D02*
D03*
X9100000D02*
D03*
D29*
X9135000Y7020000D02*
D03*
X8915000Y7180000D02*
D03*
Y7020000D02*
D03*
X9135000Y7180000D02*
D03*
D30*
X9102500Y6097500D02*
D03*
X9847500D02*
D03*
D31*
X10475000Y5995500D02*
D03*
D32*
Y6654500D02*
D03*
X10246000D02*
D03*
D33*
X9287500Y6432500D02*
D03*
X9662500D02*
D03*
X9537500D02*
D03*
X9412500D02*
D03*
D34*
X11408500Y8088750D02*
D03*
Y7591250D02*
D03*
D35*
X11666000Y7995000D02*
D03*
D36*
Y7725000D02*
D03*
D37*
Y8177500D02*
D03*
Y7502500D02*
D03*
D38*
X11054297Y7459131D02*
D03*
X10889081D02*
D03*
D39*
X10775849Y8800000D02*
X10788000Y8787849D01*
Y8725000D02*
Y8787849D01*
X11225000Y7975000D02*
X11227706D01*
X10750000Y8920000D02*
Y8925000D01*
X10650000D02*
X10750000D01*
X11227706Y7975000D02*
X11232706Y7970000D01*
X11356000D01*
X9825000Y8475000D02*
X9900000D01*
X11073087Y7080945D02*
X11075000D01*
X11073087Y7001913D02*
Y7080945D01*
Y7001913D02*
X11075000Y7000000D01*
X10850000D02*
Y7075000D01*
X10700000Y6675000D02*
Y6750000D01*
X11201913Y6598087D02*
Y6648087D01*
Y6598087D02*
X11208624Y6591376D01*
X11200000Y6650000D02*
X11201913Y6648087D01*
X11208624Y6576614D02*
Y6591376D01*
X10950000Y6425000D02*
Y6500000D01*
X10200000Y7205000D02*
X10225000Y7180000D01*
X10200000Y7205000D02*
Y7225000D01*
X10225000Y7100000D02*
Y7150000D01*
Y7175000D02*
Y7180000D01*
X10575000Y6875000D02*
X10650000D01*
X9925000Y7075000D02*
Y7150000D01*
X9676913Y8320381D02*
Y8323087D01*
X9675000Y8325000D02*
X9676913Y8323087D01*
X9750000Y8225000D02*
Y8247294D01*
X9676913Y8320381D02*
X9750000Y8247294D01*
X9425000Y8475000D02*
X9500000D01*
X9025000Y8325000D02*
X9100000D01*
X8602706Y8750000D02*
X8670000D01*
X8575000Y8725000D02*
X8577706D01*
X8602706Y8750000D01*
X8621913Y8476913D02*
X8670000Y8525000D01*
X8675000D01*
X8601913Y8476913D02*
X8621913D01*
X8600000Y8475000D02*
X8601913Y8476913D01*
X9750000Y8175000D02*
Y8225000D01*
X9175000Y7875000D02*
X9450000D01*
X9375000Y7600000D02*
X9470000D01*
X9326913Y7551913D02*
X9375000Y7600000D01*
X9326913Y7451913D02*
Y7551913D01*
X9325000Y7450000D02*
X9326913Y7451913D01*
X9250000Y7375000D02*
X9325000Y7450000D01*
X9075000Y7875000D02*
X9175000D01*
X8800000Y7375000D02*
X8875000D01*
X9175000Y7025000D02*
X9250000D01*
X9200000Y7375000D02*
X9250000D01*
X8800000Y7175000D02*
X8875000D01*
X9000000Y6125000D02*
X9050000D01*
X9465000Y7985000D02*
X9475000Y7975000D01*
X9425000Y7989372D02*
X9460628D01*
X9391800D02*
X9425000D01*
X9266172Y8010000D02*
X9286800Y7989372D01*
X9190000Y8010000D02*
X9266172D01*
X9650000Y8175000D02*
Y8225000D01*
X10325000Y7175000D02*
Y7225000D01*
X9460628Y7989372D02*
X9465000Y7985000D01*
X9286800Y7989372D02*
X9391800D01*
X10425000Y8075000D02*
X10475000D01*
X10050000Y6650000D02*
X10075000Y6675000D01*
X10050000Y6025000D02*
X10052706D01*
X10050000D02*
Y6650000D01*
X10082206Y5995500D02*
X10475000D01*
X10052706Y6025000D02*
X10082206Y5995500D01*
X9500000Y6025000D02*
X9700000D01*
X9287500Y6237500D02*
X9500000Y6025000D01*
X9287500Y6237500D02*
Y6432500D01*
Y6487500D01*
X9282500Y6492500D02*
X9287500Y6487500D01*
X8932500Y6492500D02*
X9282500D01*
X8525000Y6900000D02*
X8775000Y6650000D01*
X8525000Y6900000D02*
Y7875000D01*
Y8300000D01*
X8425000Y8400000D02*
X8525000Y8300000D01*
X8425000Y8400000D02*
Y8725000D01*
X8775000Y6650000D02*
X8932500Y6492500D01*
X8775000Y6650000D02*
X9125000D01*
X9200000Y6725000D01*
X8525000Y7875000D02*
X8650000Y8000000D01*
X8875000D01*
X10075000Y7175000D02*
X10075000Y7175000D01*
X10075000Y7175000D02*
Y7250000D01*
D40*
X10425000Y7975000D02*
X10475000D01*
D41*
X10400000D02*
X10425000D01*
X10375000Y7950000D02*
X10400000Y7975000D01*
X10200000Y7275000D02*
Y7300000D01*
X9750000Y8125000D02*
Y8150000D01*
X9650000D02*
X9675000Y8125000D01*
X10275000Y7300000D02*
X10300000Y7275000D01*
X10375000Y8025000D02*
X10400000Y8050000D01*
X9525000Y7975000D02*
X9550000D01*
X10075000Y6825000D02*
X10150000Y6900000D01*
Y6950000D01*
X8475000Y8800000D02*
Y8800000D01*
X9275000Y6800000D02*
X9325000Y6850000D01*
X10150000Y9025000D02*
X10300000Y8875000D01*
X8950000Y8000000D02*
X9000000D01*
X8825000Y8225000D02*
X8830740Y8230740D01*
Y8280740D01*
X8850000Y8300000D01*
X8825000Y8225000D02*
X9150000D01*
X9325000Y8400000D01*
X9400000D01*
X10825000Y9225000D02*
X11000000D01*
X11075000Y9150000D01*
X10600000Y8100000D02*
X10675000D01*
X9450000Y8125000D02*
X9525000Y8200000D01*
X10012018Y8633624D02*
X10020642Y8625000D01*
X10025000D01*
X10012018Y8633624D02*
Y8712982D01*
X8675000Y8625000D02*
X8852500D01*
X8852500Y8625000D01*
X9247500Y8575000D02*
X9247500Y8575000D01*
X9400000D01*
X10100000Y7275000D02*
X10125000Y7300000D01*
D42*
X10296800Y7933900D02*
X10358900D01*
X10375000Y7950000D01*
X10196445Y7300000D02*
X10200000D01*
X10181800Y7314645D02*
Y7368900D01*
Y7314645D02*
X10196445Y7300000D01*
X8680000Y8750000D02*
X8755000Y8675000D01*
X8852500D01*
X8657500Y8737500D02*
X8675000Y8750000D01*
X8847500Y8570000D02*
X8852500Y8575000D01*
X8750000Y8525000D02*
X8795000Y8570000D01*
X8847500D01*
X8675000Y8525000D02*
Y8525000D01*
X8675000D02*
X8675000D01*
Y8525000D02*
X8750000D01*
X9731800Y8106800D02*
X9750000Y8125000D01*
X9731800Y8048900D02*
Y8106800D01*
X9562021Y7633900D02*
X9616800D01*
X9528121Y7600000D02*
X9562021Y7633900D01*
X9475000Y7600000D02*
X9528121D01*
X10250000Y7325000D02*
X10275000Y7300000D01*
Y7300000D02*
Y7300000D01*
X10231800Y7341400D02*
Y7368900D01*
X10248200Y7325000D02*
X10250000D01*
X10231800Y7341400D02*
X10248200Y7325000D01*
X10324300Y7983900D02*
X10340400Y8000000D01*
X10296800Y7983900D02*
X10324300D01*
X10340400Y8000000D02*
X10350000D01*
X10375000Y8025000D01*
X10375000D01*
X9589300Y7583900D02*
X9616800D01*
X9584300Y7578900D02*
X9589300Y7583900D01*
X9570660Y7578900D02*
X9584300D01*
X9534260Y7542500D02*
X9570660Y7578900D01*
X9475000Y7542500D02*
X9534260D01*
X9475000Y7500000D02*
Y7542500D01*
X9681800Y8048900D02*
Y8118200D01*
X9675000Y8125000D02*
X9681800Y8118200D01*
X9550000Y7975000D02*
X9558900Y7983900D01*
X9616800D01*
X8775000Y8725000D02*
X8852500D01*
X10950000Y6230000D02*
X11210000D01*
X10950000Y6230000D02*
X10950000Y6230000D01*
X10150000Y6950000D02*
X10225000Y7025000D01*
X10250000D01*
X10325000Y7100000D01*
Y7175000D01*
X9000000Y8000000D02*
X9180000D01*
X9190000Y8010000D01*
X9325000Y6850000D02*
Y7225000D01*
X9475000Y7375000D01*
Y7500000D01*
X10225000Y8625000D02*
X10229358D01*
X10300000Y8695642D02*
Y8875000D01*
X10229358Y8625000D02*
X10300000Y8695642D01*
X8750000Y8750000D02*
X8775000Y8725000D01*
X8680000Y8850000D02*
X8715355Y8814645D01*
X8735355D02*
X8750000Y8800000D01*
Y8750000D02*
Y8800000D01*
X8715355Y8814645D02*
X8735355D01*
X8850000Y8300000D02*
X8875000Y8325000D01*
X8925000D01*
X9400000Y8400000D02*
X9525000D01*
X9600000Y8475000D01*
X9692134D01*
X9842134Y8625000D01*
X9949750D01*
X11075000Y8936124D02*
Y9150000D01*
X11063876Y8925000D02*
X11075000Y8936124D01*
X11062625Y8925000D02*
X11063876D01*
X10575000Y8075000D02*
X10600000Y8100000D01*
X10475000Y8075000D02*
X10575000D01*
X9400000Y8075000D02*
X9450000Y8125000D01*
X9400000Y7997573D02*
Y8075000D01*
X9391800Y7989372D02*
X9400000Y7997573D01*
X9564069Y8382500D02*
X9717500D01*
X9250000Y8150000D02*
X9460000Y8360000D01*
X9541568D02*
X9564069Y8382500D01*
X9460000Y8360000D02*
X9541568D01*
X9717500Y8382500D02*
X9831800Y8268200D01*
X8800000Y8150000D02*
X9250000D01*
X8700000Y8250000D02*
X8800000Y8150000D01*
X8700000Y8250000D02*
Y8375000D01*
X9400000Y6445000D02*
Y7100000D01*
X8700000Y8375000D02*
X8800000Y8475000D01*
X9400000Y7100000D02*
X9575000Y7275000D01*
X9400000Y6445000D02*
X9412500Y6432500D01*
X9679039Y7275000D02*
X9731800Y7327761D01*
Y7368900D01*
X9575000Y7275000D02*
X9679039D01*
X9847500Y6097500D02*
X9850000Y6100000D01*
X9900000D01*
X9975000Y6175000D01*
Y6525000D01*
X9800000Y6700000D02*
X9975000Y6525000D01*
X9800000Y6700000D02*
Y7180962D01*
X9881800Y7262762D01*
Y7368900D01*
X9662500Y7112500D02*
X9831800Y7281800D01*
Y7368900D01*
X9662500Y6432500D02*
Y7112500D01*
X9700000Y7225000D02*
X9781800Y7306800D01*
Y7368900D01*
X9550000Y6445000D02*
Y7150000D01*
X9625000Y7225000D02*
X9700000D01*
X9550000Y7150000D02*
X9625000Y7225000D01*
X9537500Y6432500D02*
X9550000Y6445000D01*
X9831800Y8048900D02*
Y8268200D01*
X10850000Y8925000D02*
Y9090000D01*
X10800000Y9140000D02*
X10850000Y9090000D01*
X10690000Y9140000D02*
X10800000D01*
X10850000Y8925000D02*
X10987375D01*
X10983017D02*
X10987375D01*
X10923000Y8864983D02*
X10983017Y8925000D01*
X10923000Y8725000D02*
Y8864983D01*
X8822500Y8495001D02*
Y8520000D01*
X8800000Y8475000D02*
X8802500D01*
X8822500Y8495001D01*
Y8520000D02*
X8827500Y8525000D01*
X8852500D01*
X10149875Y8799875D02*
X10150000Y8800000D01*
X10149875Y8625125D02*
Y8799875D01*
X10149751Y8625000D02*
X10149875Y8625125D01*
X9888876Y8388876D02*
X9900000Y8400000D01*
X9888876Y8363876D02*
Y8388876D01*
X9875000Y8350000D02*
X9888876Y8363876D01*
X9875000Y8300000D02*
Y8350000D01*
Y8300000D02*
X9881800Y8293200D01*
Y8048900D02*
Y8293200D01*
X9425000Y8675000D02*
X9800000D01*
X9950000Y8775000D02*
X10012018Y8712982D01*
X9247500Y8775000D02*
X9950000D01*
X9375000Y8725000D02*
X9425000Y8675000D01*
X9325000Y8725000D02*
X9375000D01*
X9325000Y8725000D02*
X9325000Y8725000D01*
X9247500Y8725000D02*
X9325000D01*
X9325000Y7650000D02*
Y7683900D01*
X9616800D01*
X10512625Y7375000D02*
X10516312Y7378688D01*
Y7546312D01*
X10520000Y7550000D01*
X10296800Y7483900D02*
X10337939D01*
X10369300Y7515261D01*
Y7517855D01*
X10383945Y7532500D01*
X10417500D01*
X10430000Y7545000D01*
Y7550000D01*
X9931800Y8256800D02*
X10038600Y8363600D01*
X9931800Y8048900D02*
Y8256800D01*
X10038600Y8363600D02*
Y8613876D01*
X10025000Y8625000D02*
X10027476D01*
X10038600Y8613876D01*
X10150000Y8375000D02*
Y8624751D01*
X9981800Y8048900D02*
Y8206800D01*
X10150000Y8375000D01*
X10149751Y8625000D02*
X10150000Y8624751D01*
X10275000Y8300000D02*
X10400000D01*
X10525000Y8425000D02*
X10725000D01*
X10400000Y8300000D02*
X10525000Y8425000D01*
X10725000D02*
X10775000Y8475000D01*
X10131800Y8048900D02*
Y8156800D01*
X10275000Y8300000D01*
X10775000Y8475000D02*
Y8562388D01*
X10796000Y8583388D01*
Y8598000D01*
X10231800Y8076400D02*
X10355400Y8200000D01*
X10600000Y8325000D02*
X10825000D01*
X10355400Y8200000D02*
X10475000D01*
X10600000Y8325000D01*
X10231800Y8048900D02*
Y8076400D01*
X10825000Y8325000D02*
X10923000Y8423000D01*
Y8598000D01*
X10296800Y7883900D02*
X10733900D01*
X11050000Y8200000D01*
Y8598000D01*
X9258900Y7733900D02*
X9616800D01*
X9331915Y7784194D02*
X9406473D01*
X9331621Y7783900D02*
X9331915Y7784194D01*
X9406473D02*
X9406767Y7783900D01*
X9083900D02*
X9331621D01*
X9406767D02*
X9616800D01*
X9200000Y7675000D02*
X9258900Y7733900D01*
X8975000Y7675000D02*
X9083900Y7783900D01*
X8975000Y7375000D02*
Y7675000D01*
X9200000Y7575000D02*
Y7675000D01*
X10131800Y7306800D02*
Y7368900D01*
X10125000Y7300000D02*
X10131800Y7306800D01*
D43*
X10200000Y7225000D02*
Y7275000D01*
X9750000Y8150000D02*
Y8175000D01*
X9650000Y8150000D02*
Y8175000D01*
X10325000Y7225000D02*
Y7250000D01*
X10300000Y7275000D02*
X10325000Y7250000D01*
X10400000Y8050000D02*
X10425000Y8075000D01*
X9475000Y7975000D02*
X9525000D01*
X10075000Y6675000D02*
Y6825000D01*
X10425000Y8075000D02*
Y8075000D01*
X8425000Y8725000D02*
Y8750000D01*
X8475000Y8800000D01*
X9200000Y6725000D02*
X9275000Y6800000D01*
X8700000Y9025000D02*
X10075000D01*
X8525000Y8850000D02*
X8675000D01*
X8475000Y8800000D02*
X8525000Y8850000D01*
X8700000Y9025000D01*
X8875000Y8000000D02*
X8950000D01*
X10075000Y9025000D02*
X10150000D01*
X10075000D02*
X10275000Y9225000D01*
X10350000D01*
X10825000D01*
X10350000Y9125000D02*
Y9225000D01*
X10762500Y8187500D02*
X10762500D01*
X10675000Y8100000D02*
X10762500Y8187500D01*
X9550000Y8225000D02*
X9650000D01*
X9525000Y8200000D02*
X9550000Y8225000D01*
X10075000Y7250000D02*
X10100000Y7275000D01*
X10100000D01*
D44*
X10296800Y7833900D02*
X10323283D01*
X10325114Y7832069D01*
X11390669Y7830669D02*
X11400000Y7840000D01*
X10325114Y7832069D02*
X10866418D01*
X10867818Y7830669D02*
X11390669D01*
X10866418Y7832069D02*
X10867818Y7830669D01*
X10847225Y7785732D02*
X10848625Y7784332D01*
X11390668D01*
X11400000Y7775000D01*
X10296800Y7783900D02*
X10323283D01*
X10325114Y7785732D02*
X10847225D01*
X10323283Y7783900D02*
X10325114Y7785732D01*
D45*
X10669000Y8763100D02*
D03*
Y8559900D02*
D03*
X11177000Y8661500D02*
D03*
D46*
X8500000Y6100000D02*
D03*
X11600000D02*
D03*
Y9100000D02*
D03*
X8500000D02*
D03*
D47*
X11600002Y8800001D02*
D03*
Y8400001D02*
D03*
Y7200000D02*
D03*
Y6800000D02*
D03*
Y6400000D02*
D03*
X11400002Y8800001D02*
D03*
X11500002Y7400000D02*
D03*
X11400002Y7200000D02*
D03*
X11500002Y7000000D02*
D03*
X11400002Y6800000D02*
D03*
X11500002Y6600000D02*
D03*
X11400002Y6400000D02*
D03*
X11300002Y9000001D02*
D03*
X11200001Y8800001D02*
D03*
X11300002Y8600001D02*
D03*
Y7400000D02*
D03*
Y7000000D02*
D03*
X11200001Y6800000D02*
D03*
Y6400000D02*
D03*
X11300002Y6200000D02*
D03*
X11000001Y8000001D02*
D03*
Y6800000D02*
D03*
X11100001Y6600000D02*
D03*
X10800001Y8400001D02*
D03*
Y6800000D02*
D03*
X10900001Y6600000D02*
D03*
X10800001Y6400000D02*
D03*
X10600001Y8000001D02*
D03*
Y7600000D02*
D03*
X10700001Y7400000D02*
D03*
Y7000000D02*
D03*
X10400001Y8800001D02*
D03*
X10300001Y9000001D02*
D03*
X10200001Y6400000D02*
D03*
X10100001Y7000000D02*
D03*
X9800001Y6400000D02*
D03*
X9700001Y8600001D02*
D03*
Y6200000D02*
D03*
X9500001Y8600001D02*
D03*
X9400001Y7200000D02*
D03*
X9500001Y6200000D02*
D03*
X9300000Y6600000D02*
D03*
X9200000Y6400000D02*
D03*
X9000000Y6800000D02*
D03*
Y6400000D02*
D03*
X8900000Y7800000D02*
D03*
X8800000Y7600000D02*
D03*
Y6800000D02*
D03*
Y6400000D02*
D03*
X8900000Y6200000D02*
D03*
X8700000Y7800000D02*
D03*
Y7000000D02*
D03*
Y6600000D02*
D03*
X8600000Y6400000D02*
D03*
X8700000Y6200000D02*
D03*
X8500000Y6600000D02*
D03*
D48*
X10775849Y8800000D02*
D03*
X11225000Y7975000D02*
D03*
X10650000Y8925000D02*
D03*
X9825000Y8475000D02*
D03*
X11075000Y7000000D02*
D03*
X10850000D02*
D03*
X10650000Y6875000D02*
D03*
X10700000Y6750000D02*
D03*
X11200000Y6650000D02*
D03*
X10950000Y6500000D02*
D03*
X10225000Y7100000D02*
D03*
X9950000Y6850000D02*
D03*
X9925000Y7075000D02*
D03*
X9500000Y8475000D02*
D03*
X9675000Y8325000D02*
D03*
X9100000D02*
D03*
X8575000Y8725000D02*
D03*
X8600000Y8475000D02*
D03*
X9325000Y7450000D02*
D03*
X9075000Y7875000D02*
D03*
X8800000Y7375000D02*
D03*
X9250000Y7025000D02*
D03*
X8800000Y7175000D02*
D03*
X9000000Y6125000D02*
D03*
X10050000Y6025000D02*
D03*
X9700000D02*
D03*
X8851913Y8073087D02*
D03*
X8825000Y8225000D02*
D03*
X10350000Y9125000D02*
D03*
X10762500Y8187500D02*
D03*
X9325000Y7650000D02*
D03*
D49*
X10176800Y7928900D02*
D03*
X9956800D02*
D03*
X10066800D02*
D03*
Y7818900D02*
D03*
X10176800D02*
D03*
X9956800D02*
D03*
X9846800Y7928900D02*
D03*
Y7708900D02*
D03*
Y7818900D02*
D03*
X10176800Y7708900D02*
D03*
X10066800Y7598900D02*
D03*
Y7708900D02*
D03*
X10176800Y7598900D02*
D03*
X10066800Y7488900D02*
D03*
X9956800Y7708900D02*
D03*
Y7598900D02*
D03*
X9846800D02*
D03*
X9956800Y7488900D02*
D03*
X9846800D02*
D03*
X10176800D02*
D03*
X9105000Y8595000D02*
D03*
Y8705000D02*
D03*
X8995000Y8595000D02*
D03*
Y8705000D02*
D03*
X9736800Y7928900D02*
D03*
Y7818900D02*
D03*
Y7708900D02*
D03*
Y7488900D02*
D03*
Y7598900D02*
D03*
D50*
X10690000Y9140000D02*
D03*
X10150000Y8800000D02*
D03*
X9800000Y8675000D02*
D03*
%TF.MD5,2d7f3998351af59cc9035829bf12b226*%
M02*
