%TF.GenerationSoftware,Altium Limited,Altium Designer,26.9.1 (10)*%
G04 Layer_Physical_Order=4*
G04 Layer_Color=16711680*
G04 Board_Origin=0|0*
%FSLAX45Y45*%
%MOMM*%
%TF.SameCoordinates,E5041555-3ECF-4B0D-B9F0-F997BBE7F2A8*%
%TF.FilePolarity,Positive*%
%TF.FileFunction,Copper,L4,Bot,Signal*%
%TF.Part,Single*%
G01*
G75*
%TA.AperFunction,Conductor*%
%ADD39C,0.50000*%
%ADD42C,0.25000*%
%ADD43C,0.40000*%
%TA.AperFunction,ComponentPad*%
%ADD45C,0.90000*%
%TA.AperFunction,ViaPad*%
%ADD46C,1.52400*%
%ADD47C,0.80000*%
%ADD48C,0.60000*%
%ADD49C,0.50000*%
%ADD50C,0.70000*%
D39*
X9700000Y6025000D02*
X10050000D01*
X8850000Y8000000D02*
X8851913Y8001913D01*
Y8075793D01*
X8825000Y8102706D02*
X8851913Y8075793D01*
X8825000Y8102706D02*
Y8225000D01*
D42*
X10550000Y9050000D02*
X10631390Y9131390D01*
X10550000Y8460000D02*
Y9050000D01*
X10270000Y8180000D02*
X10550000Y8460000D01*
X9610000Y8180000D02*
X10270000D01*
X10681390Y9131390D02*
X10690000Y9140000D01*
X10631390Y9131390D02*
X10681390D01*
X9325000Y7895000D02*
X9610000Y8180000D01*
X9325000Y7650000D02*
Y7895000D01*
X9925000Y8800000D02*
X10150000D01*
X9800000Y8675000D02*
X9925000Y8800000D01*
D43*
X10350000Y9125000D02*
Y9201569D01*
X10373431Y9225000D01*
X11225000D01*
X11500000Y8950000D01*
Y8600000D02*
Y8950000D01*
X11125000Y8225000D02*
X11500000Y8600000D01*
X10798432Y8225000D02*
X11125000D01*
X10762500Y8189069D02*
X10798432Y8225000D01*
X10762500Y8187500D02*
Y8189069D01*
D45*
X10669000Y8763100D02*
D03*
Y8559900D02*
D03*
X11177000Y8661500D02*
D03*
D46*
X8500000Y6100000D02*
D03*
X11600000D02*
D03*
Y9100000D02*
D03*
X8500000D02*
D03*
D47*
X11600002Y8800001D02*
D03*
Y8400001D02*
D03*
Y7200000D02*
D03*
Y6800000D02*
D03*
Y6400000D02*
D03*
X11400002Y8800001D02*
D03*
X11500002Y7400000D02*
D03*
X11400002Y7200000D02*
D03*
X11500002Y7000000D02*
D03*
X11400002Y6800000D02*
D03*
X11500002Y6600000D02*
D03*
X11400002Y6400000D02*
D03*
X11300002Y9000001D02*
D03*
X11200001Y8800001D02*
D03*
X11300002Y8600001D02*
D03*
Y7400000D02*
D03*
Y7000000D02*
D03*
X11200001Y6800000D02*
D03*
Y6400000D02*
D03*
X11300002Y6200000D02*
D03*
X11000001Y8000001D02*
D03*
Y6800000D02*
D03*
X11100001Y6600000D02*
D03*
X10800001Y8400001D02*
D03*
Y6800000D02*
D03*
X10900001Y6600000D02*
D03*
X10800001Y6400000D02*
D03*
X10600001Y8000001D02*
D03*
Y7600000D02*
D03*
X10700001Y7400000D02*
D03*
Y7000000D02*
D03*
X10400001Y8800001D02*
D03*
X10300001Y9000001D02*
D03*
X10200001Y6400000D02*
D03*
X10100001Y7000000D02*
D03*
X9800001Y6400000D02*
D03*
X9700001Y8600001D02*
D03*
Y6200000D02*
D03*
X9500001Y8600001D02*
D03*
X9400001Y7200000D02*
D03*
X9500001Y6200000D02*
D03*
X9300000Y6600000D02*
D03*
X9200000Y6400000D02*
D03*
X9000000Y6800000D02*
D03*
Y6400000D02*
D03*
X8900000Y7800000D02*
D03*
X8800000Y7600000D02*
D03*
Y6800000D02*
D03*
Y6400000D02*
D03*
X8900000Y6200000D02*
D03*
X8700000Y7800000D02*
D03*
Y7000000D02*
D03*
Y6600000D02*
D03*
X8600000Y6400000D02*
D03*
X8700000Y6200000D02*
D03*
X8500000Y6600000D02*
D03*
D48*
X10775849Y8800000D02*
D03*
X11225000Y7975000D02*
D03*
X10650000Y8925000D02*
D03*
X9825000Y8475000D02*
D03*
X11075000Y7000000D02*
D03*
X10850000D02*
D03*
X10650000Y6875000D02*
D03*
X10700000Y6750000D02*
D03*
X11200000Y6650000D02*
D03*
X10950000Y6500000D02*
D03*
X10225000Y7100000D02*
D03*
X9950000Y6850000D02*
D03*
X9925000Y7075000D02*
D03*
X9500000Y8475000D02*
D03*
X9675000Y8325000D02*
D03*
X9100000D02*
D03*
X8575000Y8725000D02*
D03*
X8600000Y8475000D02*
D03*
X9325000Y7450000D02*
D03*
X9075000Y7875000D02*
D03*
X8800000Y7375000D02*
D03*
X9250000Y7025000D02*
D03*
X8800000Y7175000D02*
D03*
X9000000Y6125000D02*
D03*
X10050000Y6025000D02*
D03*
X9700000D02*
D03*
X8851913Y8073087D02*
D03*
X8825000Y8225000D02*
D03*
X10350000Y9125000D02*
D03*
X10762500Y8187500D02*
D03*
X9325000Y7650000D02*
D03*
D49*
X10176800Y7928900D02*
D03*
X9956800D02*
D03*
X10066800D02*
D03*
Y7818900D02*
D03*
X10176800D02*
D03*
X9956800D02*
D03*
X9846800Y7928900D02*
D03*
Y7708900D02*
D03*
Y7818900D02*
D03*
X10176800Y7708900D02*
D03*
X10066800Y7598900D02*
D03*
Y7708900D02*
D03*
X10176800Y7598900D02*
D03*
X10066800Y7488900D02*
D03*
X9956800Y7708900D02*
D03*
Y7598900D02*
D03*
X9846800D02*
D03*
X9956800Y7488900D02*
D03*
X9846800D02*
D03*
X10176800D02*
D03*
X9105000Y8595000D02*
D03*
Y8705000D02*
D03*
X8995000Y8595000D02*
D03*
Y8705000D02*
D03*
X9736800Y7928900D02*
D03*
Y7818900D02*
D03*
Y7708900D02*
D03*
Y7488900D02*
D03*
Y7598900D02*
D03*
D50*
X10690000Y9140000D02*
D03*
X10150000Y8800000D02*
D03*
X9800000Y8675000D02*
D03*
%TF.MD5,bcb6e6a2e9dd177d2fb0dc78d95b3550*%
M02*
